<?xml version="1.0" encoding="iso-8859-1"?>
<!-- Generator: Adobe Illustrator 19.0.0, SVG Export Plug-In . SVG Version: 6.00 Build 0)  -->
<svg version="1.1" id="Layer_1" xmlns="http://www.w3.org/2000/svg" xmlns:xlink="http://www.w3.org/1999/xlink" x="0px" y="0px"
	 viewBox="0 0 512 512" style="enable-background:new 0 0 512 512;" xml:space="preserve">
<path style="fill:#FFD782;" d="M457.127,9.186H54.874c-25.231,0-45.686,20.455-45.686,45.686v402.254
	c0,25.233,20.455,45.686,45.686,45.686h402.254c25.231,0,45.686-20.455,45.686-45.686V54.873
	C502.813,29.641,482.359,9.186,457.127,9.186z"/>
<path style="opacity:0.1;enable-background:new    ;" d="M70.428,457.127V54.873c0-25.233,20.456-45.687,45.687-45.687H54.874
	c-25.231,0-45.687,20.455-45.687,45.687v402.254c0,25.233,20.455,45.686,45.687,45.686h61.241
	C90.884,502.813,70.428,482.358,70.428,457.127z"/>
<path d="M457.127,0H148.852c-5.074,0-9.186,4.113-9.186,9.186s4.112,9.186,9.186,9.186h308.274c20.128,0,36.501,16.373,36.501,36.5
	v402.254c0,20.126-16.373,36.501-36.501,36.501h-53.511c-5.074,0-9.186,4.113-9.186,9.186s4.112,9.186,9.186,9.186h53.511
	c30.257,0,54.873-24.616,54.873-54.873V54.873C512.001,24.616,487.384,0,457.127,0z"/>
<path d="M112.107,0H54.874C24.617,0,0.001,24.616,0.001,54.873v402.254C0.001,487.384,24.617,512,54.874,512h311.998
	c5.074,0,9.186-4.113,9.186-9.186s-4.112-9.186-9.186-9.186H54.874c-20.127-0.001-36.501-16.375-36.501-36.501V54.873
	c0-20.126,16.373-36.501,36.501-36.501h57.235c5.074,0,9.186-4.113,9.186-9.186S117.182,0,112.107,0z"/>
<path style="fill:#DCE5FA;" d="M216.347,80.038c-12.886,0-23.792,8.427-25.774,21.314l-9.914,58.984h-37.671
	c-13.878,0-25.774,11.895-25.774,25.774s11.895,25.774,25.774,25.774h28.749l-14.871,86.245h-31.723
	c-14.375,0-25.774,11.895-25.774,25.774c0,14.375,11.401,25.774,25.774,25.774h22.801l-8.923,52.045
	c-2.478,16.852,9.418,30.236,25.279,30.236c14.869,0,24.287-10.41,26.27-21.314l10.41-60.967h77.819l-9.418,52.045
	c-2.478,15.365,9.418,30.236,25.774,30.236c12.888,0,23.792-8.923,25.774-21.314l10.409-60.967h37.176
	c14.373,0,25.774-11.895,25.774-25.774c0-14.373-11.401-25.774-25.774-25.774h-28.253l14.869-86.245h31.723
	c13.878,0,25.774-11.895,25.774-25.774c0-14.374-11.895-25.774-25.774-25.774h-22.8l8.426-50.062
	c2.478-15.365-9.418-30.236-25.279-30.236c-13.382,0-24.287,8.427-26.27,21.314l-9.914,58.984h-77.819l8.922-50.062
	C244.105,94.91,232.705,80.038,216.347,80.038z M302.098,211.886l-14.869,86.245h-77.323l14.869-86.245H302.098z"/>
<path d="M295.158,441.147c-10.312,0-20.072-4.516-26.778-12.389c-6.765-7.943-9.704-18.329-8.065-28.494l0.029-0.174l7.46-41.224
	h-59.071l-9.105,53.328c-2.545,13.996-14.672,28.954-35.325,28.954c-10.247,0-19.856-4.321-26.363-11.856
	c-6.752-7.818-9.595-18.083-8.004-28.902l0.034-0.216l7.082-41.307h-11.906c-19.605,0-34.96-15.357-34.96-34.96
	c0-19.277,15.684-34.96,34.96-34.96h23.984l11.703-67.872H142.99c-18.95,0-34.96-16.01-34.96-34.96
	c0-18.952,16.01-34.961,34.96-34.961h29.899l8.615-51.26c2.663-17.1,16.982-29.038,34.844-29.038c10.132,0,19.405,4.2,26.111,11.827
	c6.92,7.871,10.118,18.356,8.775,28.771l-0.067,0.436l-6.997,39.264h59.079l8.615-51.264c2.665-17.099,17.187-29.033,35.339-29.033
	c10.039,0,19.601,4.467,26.233,12.256c6.803,7.988,9.761,18.424,8.114,28.629l-6.634,39.414h11.938
	c19.277,0,34.96,15.684,34.96,34.961c0,18.95-16.01,34.96-34.96,34.96H362.87l-11.702,67.872h17.347
	c19.604,0,34.96,15.357,34.96,34.96c0,19.277-15.684,34.96-34.96,34.96h-29.423l-9.104,53.328
	C327.31,428.93,312.656,441.147,295.158,441.147z M278.441,403.263c-0.753,4.817,0.675,9.764,3.927,13.581
	c3.257,3.824,7.798,5.929,12.791,5.929c8.421,0,15.445-5.711,16.704-13.578l11.729-68.701h44.926
	c8.991,0,16.588-7.596,16.588-16.588c0-9.301-7.286-16.588-16.588-16.588H329.36l18.037-104.617h39.461
	c8.836,0,16.588-7.752,16.588-16.588c0-8.993-7.596-16.589-16.588-16.589h-33.661l10.229-60.773
	c0.778-4.821-0.668-9.848-3.975-13.73c-3.182-3.737-7.531-5.795-12.247-5.795c-9.037,0-15.946,5.436-17.19,13.524l-0.02,0.126
	l-11.201,66.647h-96.558l10.803-60.62c0.603-5.111-0.986-10.236-4.375-14.092c-3.167-3.602-7.54-5.586-12.313-5.586
	c-8.742,0-15.451,5.436-16.696,13.524l-0.02,0.126l-11.202,66.647h-45.442c-8.837,0-16.588,7.752-16.588,16.589
	c0,8.836,7.752,16.588,16.588,16.588h39.655l-18.039,104.617h-39.46c-8.991,0-16.588,7.596-16.588,16.588
	c0,9.301,7.286,16.588,16.588,16.588h33.696L148.1,403.161c-0.772,5.416,0.557,10.427,3.747,14.12
	c3.06,3.542,7.484,5.493,12.459,5.493c10.173,0,15.985-6.917,17.232-13.771l11.696-68.51h96.567L278.441,403.263z M294.966,307.316
	h-95.967l18.038-104.617h95.966L294.966,307.316z M220.81,288.944h58.68l11.702-67.872h-58.68L220.81,288.944z"/>
<g>
</g>
<g>
</g>
<g>
</g>
<g>
</g>
<g>
</g>
<g>
</g>
<g>
</g>
<g>
</g>
<g>
</g>
<g>
</g>
<g>
</g>
<g>
</g>
<g>
</g>
<g>
</g>
<g>
</g>
</svg>
