<?xml version="1.0" encoding="iso-8859-1"?>
<!-- Generator: Adobe Illustrator 19.0.0, SVG Export Plug-In . SVG Version: 6.00 Build 0)  -->
<svg version="1.1" id="Capa_1" xmlns="http://www.w3.org/2000/svg" xmlns:xlink="http://www.w3.org/1999/xlink" x="0px" y="0px"
	 viewBox="0 0 512.003 512.003" style="enable-background:new 0 0 512.003 512.003;" xml:space="preserve">
<ellipse style="fill:#824D51;" cx="256.001" cy="284.06" rx="192.39" ry="196.4"/>
<ellipse style="fill:#C0826C;" cx="256.001" cy="300.09" rx="128.26" ry="180.36"/>
<path style="fill:#965A50;" d="M472.438,143.774l-25.505,25.505c0.925-5.737,1.457-11.565,1.457-17.489
	C448.39,72.1,362.255,7.5,256.003,7.5S63.615,72.101,63.615,151.79c0,5.924,0.532,11.752,1.457,17.489l-25.505-25.505
	c0,0-32.065,80.161-32.065,128.258H31.55v24.048c0,0,69.233,7.612,139.875-14.678c-3.601-1.354,84.577-41.435,84.577-41.435
	s80.161,40.081,84.577,41.435c70.642,22.29,139.875,14.678,139.875,14.678v-24.048h24.048
	C504.502,223.936,472.438,143.774,472.438,143.774z"/>
<path style="fill:#AF6E5A;" d="M446.244,69.33c27.265-15.291,36.925-36.647,40.348-49.839c1.31-5.051-3.58-9.355-8.504-7.626
	c-61.503,21.589-161.655-9.546-211.915,75.584c-4.613,7.813-15.728,7.813-20.341,0C195.571,2.319,95.42,33.455,33.916,11.865
	c-4.924-1.729-9.814,2.575-8.504,7.626C28.835,32.683,38.495,54.038,65.76,69.33c4.713,2.643,5.652,8.961,1.796,12.747
	c-25.263,24.807-39.638,60.657-35.21,99.763c6.183,54.6,50.109,98.841,104.672,105.342c50.642,6.034,95.951-19.462,118.984-59.42
	c23.033,39.958,68.342,65.453,118.984,59.42c54.563-6.501,98.489-50.742,104.672-105.342c4.428-39.105-9.947-74.956-35.21-99.763
	C440.593,78.292,441.531,71.974,446.244,69.33z"/>
<circle style="fill:#FFC850;" cx="151.79" cy="167.82" r="80.16"/>
<path style="fill:#EBAF4B;" d="M256.002,304.097l24.048-64.129l-12.712-12.712c-6.261-6.261-16.412-6.261-22.673,0l-12.712,12.712
	L256.002,304.097z"/>
<path style="fill:#4B3F4E;" d="M151.792,207.903L151.792,207.903c-17.709,0-32.065-14.356-32.065-32.064v-16.032
	c0-17.709,14.356-32.064,32.064-32.064l0,0c17.709,0,32.064,14.356,32.064,32.064v16.032
	C183.857,193.548,169.501,207.903,151.792,207.903z"/>
<circle style="fill:#FFC850;" cx="360.211" cy="167.82" r="80.16"/>
<path style="fill:#4B3F4E;" d="M360.212,207.903L360.212,207.903c-17.709,0-32.065-14.356-32.065-32.064v-16.032
	c0-17.709,14.356-32.064,32.064-32.064l0,0c17.709,0,32.064,14.356,32.064,32.064v16.032
	C392.276,193.548,377.92,207.903,360.212,207.903z"/>
<path d="M487.637,157.652c-0.032-0.108-0.076-0.211-0.113-0.316c-2.513-30.814-16.044-59.507-38.234-81.073
	c11.663-6.439,21.387-14.477,29.003-23.997c17.475-21.843,17.676-43.84,17.676-44.766c0-2.599-1.346-5.013-3.557-6.38
	c-2.213-1.367-4.974-1.49-7.298-0.328c-19.888,9.944-46.494,11.719-74.663,13.598c-18.105,1.208-36.581,2.444-54.658,5.811
	C324.193,6.807,290.633,0,256.002,0c-34.626,0-68.195,6.803-99.802,20.199c-18.074-3.366-36.547-4.602-54.649-5.809
	c-28.169-1.879-54.775-3.654-74.663-13.598c-2.324-1.162-5.085-1.039-7.297,0.328c-2.211,1.367-3.557,3.781-3.557,6.38
	c0,0.926,0.201,22.922,17.676,44.766c7.616,9.52,17.34,17.558,29.004,23.997C40.517,97.828,26.99,126.5,24.48,157.335
	c-0.037,0.106-0.08,0.208-0.113,0.316c-0.995,3.316-24.365,81.593-24.365,114.381c0,4.142,3.357,7.5,7.5,7.5h16.549v16.548
	c0,3.441,2.342,6.441,5.681,7.276c1.049,0.262,11.333,2.763,27.345,4.308c4.742,48.689,27.105,93.745,63.202,127.146
	c14.39,13.316,30.472,24.294,47.713,32.757l-54.385,4.532c-9.394,0.783-17.389,7.067-20.37,16.01l-4.673,14.019
	c-1.31,3.93,0.814,8.177,4.743,9.487c0.787,0.262,1.587,0.387,2.373,0.387c3.14,0,6.066-1.988,7.114-5.13l4.673-14.019
	c1.081-3.243,3.979-5.521,7.386-5.805l5.391-0.449V504.5c0,4.142,3.357,7.5,7.5,7.5c4.143,0,7.5-3.358,7.5-7.5v-19.151l9.997-0.833
	l7.453,22.357c1.048,3.143,3.975,5.13,7.114,5.13c0.786,0,1.586-0.125,2.373-0.387c3.93-1.31,6.053-5.558,4.743-9.487l-6.299-18.894
	l39.297-3.275c18.039,5.26,36.893,7.993,56.08,7.993s38.041-2.732,56.08-7.993l39.297,3.275l-6.299,18.894
	c-1.31,3.93,0.813,8.177,4.743,9.487c0.787,0.262,1.587,0.387,2.373,0.387c3.14,0,6.066-1.988,7.114-5.13l7.453-22.357l9.997,0.833
	V504.5c0,4.142,3.357,7.5,7.5,7.5s7.5-3.358,7.5-7.5v-17.901l5.391,0.449c3.406,0.284,6.305,2.563,7.386,5.805l4.673,14.019
	c1.048,3.143,3.974,5.13,7.114,5.13c0.786,0,1.586-0.125,2.373-0.387c3.929-1.31,6.053-5.557,4.743-9.487l-4.673-14.02
	c-2.981-8.942-10.977-15.226-20.37-16.009l-54.385-4.532c17.241-8.463,33.323-19.441,47.713-32.757
	c36.097-33.401,58.461-78.457,63.202-127.147c16.011-1.545,26.297-4.045,27.345-4.307c3.339-0.834,5.681-3.834,5.681-7.276v-16.548
	h16.549c4.143,0,7.5-3.358,7.5-7.5C512.001,239.244,488.632,160.968,487.637,157.652z M256.002,15
	c25.537,0,50.448,3.934,74.339,11.688c-3.206,1.075-6.387,2.249-9.537,3.547c-28.425,11.716-49.738,31.452-64.802,60.075
	c-15.064-28.624-36.377-48.359-64.802-60.075c-3.148-1.298-6.328-2.471-9.533-3.546C205.559,18.937,230.471,15,256.002,15z
	 M77.406,83.112c9.397,3.681,19.772,6.526,31.066,8.523c-26.462,15.106-44.341,43.597-44.341,76.187
	c0,48.336,39.324,87.661,87.661,87.661s87.661-39.325,87.661-87.661c0-48.337-39.324-87.662-87.661-87.662
	c-49.576,0-86.16-12.642-105.797-36.56c-7.08-8.623-10.811-17.337-12.776-24.044c19.963,6.64,43.101,8.183,67.335,9.799
	c58.074,3.874,118.127,7.879,148.516,81.511c1.194,2.893,3.988,4.641,6.936,4.641c0.953,0,1.923-0.183,2.858-0.569
	c1.921-0.793,3.336-2.292,4.071-4.072h0.001c30.389-73.632,90.441-77.638,148.516-81.511c24.234-1.617,47.37-3.159,67.334-9.799
	c-1.967,6.71-5.697,15.423-12.775,24.043c-19.637,23.918-56.221,36.56-105.797,36.56c-48.337,0-87.661,39.325-87.661,87.662
	c0,48.336,39.324,87.661,87.661,87.661s87.661-39.325,87.661-87.661c0-13.401-2.947-26.267-8.76-38.239
	c-1.809-3.725-6.296-5.28-10.022-3.472c-3.727,1.809-5.28,6.296-3.472,10.022c4.813,9.915,7.254,20.576,7.254,31.688
	c0,40.065-32.596,72.661-72.661,72.661s-72.661-32.596-72.661-72.661c0-40.066,32.596-72.662,72.661-72.662
	c15.873,0,30.95,5.024,43.602,14.53c3.311,2.49,8.013,1.821,10.501-1.491s1.82-8.013-1.491-10.501
	c-2.972-2.233-6.058-4.255-9.237-6.073c11.275-1.997,21.633-4.84,31.017-8.516c24.415,21.446,38.35,52.118,38.35,84.713
	c0,62.166-50.575,112.742-112.741,112.742c-28.456,0-55.362-10.549-76.209-29.777l3.07-8.187c1.032-2.753,0.36-5.857-1.719-7.937
	l-12.713-12.712c-9.176-9.174-24.104-9.174-33.28,0l-12.712,12.712c-2.079,2.08-2.751,5.183-1.719,7.937l3.07,8.187
	c-20.847,19.23-47.74,29.776-76.209,29.776c-62.166,0-112.741-50.576-112.741-112.742C39.051,135.199,52.983,104.558,77.406,83.112z
	 M224.452,167.823c0,40.065-32.596,72.661-72.661,72.661s-72.661-32.596-72.661-72.661c0-40.066,32.596-72.662,72.661-72.662
	S224.452,127.757,224.452,167.823z M240.671,241.856l9.297-9.296c3.328-3.326,8.741-3.326,12.067,0l9.298,9.297l-15.331,40.881
	L240.671,241.856z M31.551,264.532H15.366c1.498-17.269,7.363-42.985,12.842-64.349c11.549,44.073,46.108,78.923,90.009,90.895
	c-35.701,5.499-66.806,1.17-79.166-1.106v-17.94C39.051,267.89,35.693,264.532,31.551,264.532z M72.26,308.684
	c3.234,0.124,6.598,0.196,10.088,0.196c11.541,0,24.387-0.766,37.912-2.864c0.037,4.876,0.207,9.777,0.522,14.602
	c0.26,3.966,3.559,7.01,7.477,7.01c0.165,0,0.331-0.005,0.498-0.017c4.133-0.271,7.265-3.841,6.994-7.974
	c-0.337-5.132-0.507-10.361-0.507-15.541c0-0.31,0.006-0.62,0.008-0.93c8.896-2.005,17.973-4.631,27.075-8.038
	c26.332-2.145,51.059-12.315,71.307-29.32l15.346,40.921c1.098,2.927,3.896,4.867,7.022,4.867c3.126,0,5.925-1.939,7.022-4.867
	l15.346-40.921c20.249,17.003,44.983,27.172,71.306,29.319c9.103,3.407,18.181,6.034,27.076,8.039c0.001,0.31,0.008,0.62,0.008,0.93
	c0,93.107-54.172,168.855-120.758,168.855c-26.386,0-51.482-11.768-72.577-34.031c-20.886-22.041-36.337-53.379-43.507-88.242
	c-0.835-4.057-4.803-6.667-8.857-5.835c-4.058,0.834-6.67,4.8-5.836,8.857c7.727,37.564,24.529,71.493,47.312,95.537
	c2.487,2.624,5.029,5.113,7.616,7.48c-18.056-8.125-34.842-19.181-49.687-32.917C97.688,393.471,77.151,352.76,72.26,308.684z
	 M381.538,423.801c-14.814,13.708-31.563,24.746-49.577,32.866c7.41-6.79,14.376-14.627,20.799-23.458
	c24.818-34.125,38.623-79.23,38.983-127.193c13.525,2.098,26.371,2.863,37.914,2.863c3.49,0,6.854-0.072,10.088-0.196
	C434.853,352.76,414.316,393.471,381.538,423.801z M480.453,264.532c-4.143,0-7.5,3.358-7.5,7.5v17.948
	c-12.356,2.29-43.443,6.642-79.205,1.108c43.919-11.962,78.495-46.82,90.048-90.905c5.479,21.364,11.343,47.081,12.842,64.349
	H480.453z"/>
<path d="M151.792,215.403c21.815,0,39.564-17.749,39.564-39.564v-16.032c0-21.816-17.749-39.565-39.564-39.565
	s-39.564,17.749-39.564,39.565v16.032C112.228,197.655,129.977,215.403,151.792,215.403z M127.228,159.807
	c0-13.545,11.02-24.565,24.564-24.565s24.564,11.02,24.564,24.565v16.032c0,13.545-11.02,24.564-24.564,24.564
	s-24.564-11.02-24.564-24.564C127.228,175.839,127.228,159.807,127.228,159.807z"/>
<path d="M360.212,120.242c-21.815,0-39.564,17.749-39.564,39.565v16.032c0,21.816,17.749,39.564,39.564,39.564
	s39.564-17.749,39.564-39.564v-16.032C399.776,137.99,382.027,120.242,360.212,120.242z M384.776,175.839
	c0,13.545-11.02,24.564-24.564,24.564s-24.564-11.02-24.564-24.564v-16.032c0-13.545,11.02-24.565,24.564-24.565
	s24.564,11.02,24.564,24.565V175.839z"/>
<path d="M151.792,183.339c4.143,0,7.5-3.358,7.5-7.5v-16.032c0-4.142-3.357-7.5-7.5-7.5s-7.5,3.358-7.5,7.5v16.032
	C144.292,179.981,147.65,183.339,151.792,183.339z"/>
<path d="M360.212,152.307c-4.143,0-7.5,3.358-7.5,7.5v16.032c0,4.142,3.357,7.5,7.5,7.5s7.5-3.358,7.5-7.5v-16.032
	C367.712,155.665,364.355,152.307,360.212,152.307z"/>
<g>
</g>
<g>
</g>
<g>
</g>
<g>
</g>
<g>
</g>
<g>
</g>
<g>
</g>
<g>
</g>
<g>
</g>
<g>
</g>
<g>
</g>
<g>
</g>
<g>
</g>
<g>
</g>
<g>
</g>
</svg>
