<?xml version="1.0" encoding="iso-8859-1"?>
<!-- Generator: Adobe Illustrator 19.0.0, SVG Export Plug-In . SVG Version: 6.00 Build 0)  -->
<svg version="1.1" id="Layer_1" xmlns="http://www.w3.org/2000/svg" xmlns:xlink="http://www.w3.org/1999/xlink" x="0px" y="0px"
	 viewBox="0 0 512.001 512.001" style="enable-background:new 0 0 512.001 512.001;" xml:space="preserve">
<rect x="25.001" y="442.68" transform="matrix(-0.7071 -0.7071 0.7071 -0.7071 -267.1371 842.702)" style="fill:#082947;" width="31.919" height="67.993"/>
<polygon style="fill:#98D9D5;" points="126.42,436.352 72.518,490.255 49.955,467.692 96.334,406.266 "/>
<polygon style="fill:#C1E8E6;" points="103.858,413.789 49.955,467.692 27.393,445.114 81.288,391.219 "/>
<polygon style="fill:#185F8D;" points="171.576,300.931 96.342,421.305 133.951,458.93 224.239,368.642 "/>
<path style="fill:#4284B2;" d="M96.342,421.305c-0.007,0.007-37.624-37.624-37.624-37.624l90.288-90.273l45.14,30.093
	L96.342,421.305z"/>
<polygon style="fill:#6DA8D6;" points="306.988,195.612 186.622,331.025 231.762,376.165 352.128,255.799 "/>
<polygon style="fill:#9EC8E8;" points="314.512,203.136 186.622,331.025 149.005,293.408 141.482,285.885 261.855,165.511 "/>
<polygon style="fill:#185F8D;" points="449.939,157.988 352.128,255.799 306.988,210.659 401.03,86.524 453.694,139.187 "/>
<polygon style="fill:#082947;" points="506.364,101.563 472.509,135.418 453.694,139.187 408.553,94.047 461.217,56.43 "/>
<polygon style="fill:#4284B2;" points="416.076,101.57 306.988,210.659 261.855,165.511 370.944,56.438 "/>
<polygon style="fill:#274B6D;" points="461.217,56.43 416.076,101.57 370.944,56.438 416.076,11.29 "/>
<polygon style="fill:#98D9D5;" points="227.999,154.229 205.428,131.659 337.087,0 472.507,135.42 449.937,157.99 337.087,45.14 "/>
<g>
</g>
<g>
</g>
<g>
</g>
<g>
</g>
<g>
</g>
<g>
</g>
<g>
</g>
<g>
</g>
<g>
</g>
<g>
</g>
<g>
</g>
<g>
</g>
<g>
</g>
<g>
</g>
<g>
</g>
</svg>
