<?xml version="1.0" encoding="iso-8859-1"?>
<!-- Generator: Adobe Illustrator 19.0.0, SVG Export Plug-In . SVG Version: 6.00 Build 0)  -->
<svg version="1.1" id="Layer_1" xmlns="http://www.w3.org/2000/svg" xmlns:xlink="http://www.w3.org/1999/xlink" x="0px" y="0px"
	 viewBox="0 0 512 512" style="enable-background:new 0 0 512 512;" xml:space="preserve">
<path style="fill:#b8eade;" d="M494.345,366.345H17.655C7.904,366.345,0,358.441,0,348.69v17.655C0,376.096,7.904,384,17.655,384
	h476.69c9.751,0,17.655-7.904,17.655-17.655V348.69C512,358.441,504.096,366.345,494.345,366.345z"/>
<path style="fill:#b8eade;" d="M494.345,128H17.655C7.904,128,0,135.904,0,145.655v17.655V348.69
	c0,9.751,7.904,17.655,17.655,17.655h476.69c9.751,0,17.655-7.904,17.655-17.655V163.31v-17.655
	C512,135.904,504.096,128,494.345,128z M114.759,322.207v8.828c0,4.875-3.953,8.828-8.828,8.828H88.276
	c-4.875,0-8.828-3.953-8.828-8.828v-8.828v-8.828c0-4.875,3.953-8.828,8.828-8.828H61.793c4.875,0,8.828,3.953,8.828,8.828v8.828
	v8.828c0,4.875-3.953,8.828-8.828,8.828H44.138c-4.875,0-8.828-3.953-8.828-8.828v-8.828v-8.828c0-4.875,3.953-8.828,8.828-8.828
	c-4.875,0-8.828-3.953-8.828-8.828v-8.828v-8.828c0-4.875,3.953-8.828,8.828-8.828c-4.875,0-8.828-3.953-8.828-8.828v-8.828v-8.828
	c0-4.875,3.953-8.828,8.828-8.828c-4.875,0-8.828-3.953-8.828-8.828v-8.828v-8.828c0-4.875,3.953-8.828,8.828-8.828
	c-4.875,0-8.828-3.953-8.828-8.828v-8.828v-8.828c0-4.875,3.953-8.828,8.828-8.828h61.793c4.875,0,8.828,3.953,8.828,8.828v8.828
	v8.828c0,4.875-3.953,8.828-8.828,8.828H88.276c4.875,0,8.828,3.953,8.828,8.828v8.828v8.828c0,4.875-3.953,8.828-8.828,8.828
	h17.655c4.875,0,8.828,3.953,8.828,8.828v8.828v8.828c0,4.875-3.953,8.828-8.828,8.828H88.276c4.875,0,8.828,3.953,8.828,8.828
	v8.828v8.828c0,4.875-3.953,8.828-8.828,8.828h17.655c4.875,0,8.828,3.953,8.828,8.828V322.207z M158.897,322.207v8.828
	c0,4.875-3.953,8.828-8.828,8.828h-17.655c-4.875,0-8.828-3.953-8.828-8.828v-8.828v-8.828c0-4.875,3.953-8.828,8.828-8.828h-17.655
	c-4.875,0-8.828-3.953-8.828-8.828v-8.828v-8.828c0-4.875,3.953-8.828,8.828-8.828h17.655c-4.875,0-8.828-3.953-8.828-8.828v-8.828
	v-8.828c0-4.875,3.953-8.828,8.828-8.828h-17.655c-4.875,0-8.828-3.953-8.828-8.828v-8.828v-8.828c0-4.875,3.953-8.828,8.828-8.828
	h17.655c-4.875,0-8.828-3.953-8.828-8.828v-8.828v-8.828c0-4.875,3.953-8.828,8.828-8.828h17.655c4.875,0,8.828,3.953,8.828,8.828
	v8.828v8.828c0,4.875-3.953,8.828-8.828,8.828h-17.655c4.875,0,8.828,3.953,8.828,8.828v8.828v8.828
	c0,4.875-3.953,8.828-8.828,8.828h17.655c4.875,0,8.828,3.953,8.828,8.828v8.828v8.828c0,4.875-3.953,8.828-8.828,8.828h-17.655
	c4.875,0,8.828,3.953,8.828,8.828v8.828v8.828c0,4.875-3.953,8.828-8.828,8.828h17.655c4.875,0,8.828,3.953,8.828,8.828V322.207z
	 M335.448,322.207v8.828c0,4.875-3.953,8.828-8.828,8.828H176.552c-4.875,0-8.828-3.953-8.828-8.828v-8.828v-8.828
	c0-4.875,3.953-8.828,8.828-8.828h-17.655c-4.875,0-8.828-3.953-8.828-8.828v-8.828v-8.828c0-4.875,3.953-8.828,8.828-8.828h17.655
	c-4.875,0-8.828-3.953-8.828-8.828v-8.828v-8.828c0-4.875,3.953-8.828,8.828-8.828h-17.655c-4.875,0-8.828-3.953-8.828-8.828v-8.828
	v-8.828c0-4.875,3.953-8.828,8.828-8.828h17.655c-4.875,0-8.828-3.953-8.828-8.828v-8.828v-8.828c0-4.875,3.953-8.828,8.828-8.828
	h17.655c4.875,0,8.828,3.953,8.828,8.828v8.828v8.828c0,4.875-3.953,8.828-8.828,8.828h-17.655c4.875,0,8.828,3.953,8.828,8.828
	v8.828v8.828c0,4.875-3.953,8.828-8.828,8.828h17.655c4.875,0,8.828,3.953,8.828,8.828v8.828v8.828c0,4.875-3.953,8.828-8.828,8.828
	h-17.655c4.875,0,8.828,3.953,8.828,8.828v8.828v8.828c0,4.875-3.953,8.828-8.828,8.828h26.483c-4.875,0-8.828-3.953-8.828-8.828
	v-8.828v-8.828c0-4.875,3.953-8.828,8.828-8.828h17.655c-4.875,0-8.828-3.953-8.828-8.828v-8.828v-8.828
	c0-4.875,3.953-8.828,8.828-8.828h-17.655c-4.875,0-8.828-3.953-8.828-8.828v-8.828v-8.828c0-4.875,3.953-8.828,8.828-8.828h17.655
	c-4.875,0-8.828-3.953-8.828-8.828v-8.828v-8.828c0-4.875,3.953-8.828,8.828-8.828h17.655c4.875,0,8.828,3.953,8.828,8.828v8.828
	v8.828c0,4.875-3.953,8.828-8.828,8.828H220.69c4.875,0,8.828,3.953,8.828,8.828v8.828v8.828c0,4.875-3.953,8.828-8.828,8.828
	h17.655c4.875,0,8.828,3.953,8.828,8.828v8.828v8.828c0,4.875-3.953,8.828-8.828,8.828H220.69c4.875,0,8.828,3.953,8.828,8.828
	v8.828v8.828c0,4.875-3.953,8.828-8.828,8.828h26.483c-4.875,0-8.828-3.953-8.828-8.828v-8.828v-8.828
	c0-4.875,3.953-8.828,8.828-8.828h17.655c-4.875,0-8.828-3.953-8.828-8.828v-8.828v-8.828c0-4.875,3.953-8.828,8.828-8.828h-17.655
	c-4.875,0-8.828-3.953-8.828-8.828v-8.828v-8.828c0-4.875,3.953-8.828,8.828-8.828h17.655c-4.875,0-8.828-3.953-8.828-8.828v-8.828
	v-8.828c0-4.875,3.953-8.828,8.828-8.828h17.655c4.875,0,8.828,3.953,8.828,8.828v8.828v8.828c0,4.875-3.953,8.828-8.828,8.828
	h-17.655c4.875,0,8.828,3.953,8.828,8.828v8.828v8.828c0,4.875-3.953,8.828-8.828,8.828h17.655c4.875,0,8.828,3.953,8.828,8.828
	v8.828v8.828c0,4.875-3.953,8.828-8.828,8.828h-17.655c4.875,0,8.828,3.953,8.828,8.828v8.828v8.828
	c0,4.875-3.953,8.828-8.828,8.828h26.483c-4.875,0-8.828-3.953-8.828-8.828v-8.828v-8.828c0-4.875,3.953-8.828,8.828-8.828h17.655
	c-4.875,0-8.828-3.953-8.828-8.828v-8.828v-8.828c0-4.875,3.953-8.828,8.828-8.828H291.31c-4.875,0-8.828-3.953-8.828-8.828v-8.828
	v-8.828c0-4.875,3.953-8.828,8.828-8.828h17.655c-4.875,0-8.828-3.953-8.828-8.828v-8.828v-8.828c0-4.875,3.953-8.828,8.828-8.828
	h17.655c4.875,0,8.828,3.953,8.828,8.828v8.828v8.828c0,4.875-3.953,8.828-8.828,8.828h-17.655c4.875,0,8.828,3.953,8.828,8.828
	v8.828v8.828c0,4.875-3.953,8.828-8.828,8.828h17.655c4.875,0,8.828,3.953,8.828,8.828v8.828v8.828c0,4.875-3.953,8.828-8.828,8.828
	h-17.655c4.875,0,8.828,3.953,8.828,8.828v8.828v8.828c0,4.875-3.953,8.828-8.828,8.828h17.655c4.875,0,8.828,3.953,8.828,8.828
	V322.207z M379.586,322.207v8.828c0,4.875-3.953,8.828-8.828,8.828h-17.655c-4.875,0-8.828-3.953-8.828-8.828v-8.828v-8.828
	c0-4.875,3.953-8.828,8.828-8.828h-17.655c-4.875,0-8.828-3.953-8.828-8.828v-8.828v-8.828c0-4.875,3.953-8.828,8.828-8.828h17.655
	c-4.875,0-8.828-3.953-8.828-8.828v-8.828v-8.828c0-4.875,3.953-8.828,8.828-8.828h-17.655c-4.875,0-8.828-3.953-8.828-8.828v-8.828
	v-8.828c0-4.875,3.953-8.828,8.828-8.828h17.655c-4.875,0-8.828-3.953-8.828-8.828v-8.828v-8.828c0-4.875,3.953-8.828,8.828-8.828
	h17.655c4.875,0,8.828,3.953,8.828,8.828v8.828v8.828c0,4.875-3.953,8.828-8.828,8.828h-17.655c4.875,0,8.828,3.953,8.828,8.828
	v8.828v8.828c0,4.875-3.953,8.828-8.828,8.828h17.655c4.875,0,8.828,3.953,8.828,8.828v8.828v8.828c0,4.875-3.953,8.828-8.828,8.828
	h-17.655c4.875,0,8.828,3.953,8.828,8.828v8.828v8.828c0,4.875-3.953,8.828-8.828,8.828h17.655c4.875,0,8.828,3.953,8.828,8.828
	V322.207z M423.724,322.207v8.828c0,4.875-3.953,8.828-8.828,8.828h-17.655c-4.875,0-8.828-3.953-8.828-8.828v-8.828v-8.828
	c0-4.875,3.953-8.828,8.828-8.828h-17.655c-4.875,0-8.828-3.953-8.828-8.828v-8.828v-8.828c0-4.875,3.953-8.828,8.828-8.828h17.655
	c-4.875,0-8.828-3.953-8.828-8.828v-8.828v-8.828c0-4.875,3.953-8.828,8.828-8.828h-17.655c-4.875,0-8.828-3.953-8.828-8.828v-8.828
	v-8.828c0-4.875,3.953-8.828,8.828-8.828h17.655c-4.875,0-8.828-3.953-8.828-8.828v-8.828v-8.828c0-4.875,3.953-8.828,8.828-8.828
	h17.655c4.875,0,8.828,3.953,8.828,8.828v8.828v8.828c0,4.875-3.953,8.828-8.828,8.828h-17.655c4.875,0,8.828,3.953,8.828,8.828
	v8.828v8.828c0,4.875-3.953,8.828-8.828,8.828h17.655c4.875,0,8.828,3.953,8.828,8.828v8.828v8.828c0,4.875-3.953,8.828-8.828,8.828
	h-17.655c4.875,0,8.828,3.953,8.828,8.828v8.828v8.828c0,4.875-3.953,8.828-8.828,8.828h17.655c4.875,0,8.828,3.953,8.828,8.828
	V322.207z M476.69,180.966v8.828c0,4.875-3.953,8.828-8.828,8.828c4.875,0,8.828,3.953,8.828,8.828v8.828v8.828
	c0,4.875-3.953,8.828-8.828,8.828c4.875,0,8.828,3.953,8.828,8.828v8.828v8.828c0,4.875-3.953,8.828-8.828,8.828
	c4.875,0,8.828,3.953,8.828,8.828v8.828v8.828c0,4.875-3.953,8.828-8.828,8.828c4.875,0,8.828,3.953,8.828,8.828v8.828v8.828
	c0,4.875-3.953,8.828-8.828,8.828h-26.483c-4.875,0-8.828-3.953-8.828-8.828v-8.828v-8.828c0-4.875,3.953-8.828,8.828-8.828h-17.655
	c-4.875,0-8.828-3.953-8.828-8.828v-8.828v-8.828c0-4.875,3.953-8.828,8.828-8.828h17.655c-4.875,0-8.828-3.953-8.828-8.828v-8.828
	v-8.828c0-4.875,3.953-8.828,8.828-8.828h-17.655c-4.875,0-8.828-3.953-8.828-8.828v-8.828v-8.828c0-4.875,3.953-8.828,8.828-8.828
	h17.655c-4.875,0-8.828-3.953-8.828-8.828v-8.828v-8.828c0-4.875,3.953-8.828,8.828-8.828h26.483c4.875,0,8.828,3.953,8.828,8.828
	V180.966z"/>
<g>
	<path style="fill:#BEC8DC;" d="M105.931,198.621c4.875,0,8.828-3.953,8.828-8.828v-8.828c0,4.875-3.953,8.828-8.828,8.828H44.138
		c-4.875,0-8.828-3.953-8.828-8.828v8.828c0,4.875,3.953,8.828,8.828,8.828h44.138H105.931z"/>
	<path style="fill:#BEC8DC;" d="M105.931,269.241c4.875,0,8.828-3.953,8.828-8.828v-8.828c0,4.875-3.953,8.828-8.828,8.828H44.138
		c-4.875,0-8.828-3.953-8.828-8.828v8.828c0,4.875,3.953,8.828,8.828,8.828h44.138H105.931z"/>
	<path style="fill:#BEC8DC;" d="M97.103,225.103v-8.828c0,4.875-3.953,8.828-8.828,8.828H44.138c-4.875,0-8.828-3.953-8.828-8.828
		v8.828c0,4.875,3.953,8.828,8.828,8.828h44.138C93.151,233.931,97.103,229.978,97.103,225.103z"/>
	<path style="fill:#BEC8DC;" d="M97.103,295.724v-8.828c0,4.875-3.953,8.828-8.828,8.828H44.138c-4.875,0-8.828-3.953-8.828-8.828
		v8.828c0,4.875,3.953,8.828,8.828,8.828h17.655h26.483C93.151,304.552,97.103,300.599,97.103,295.724z"/>
	<path style="fill:#BEC8DC;" d="M158.897,189.793v-8.828c0,4.875-3.953,8.828-8.828,8.828h-17.655c-4.875,0-8.828-3.953-8.828-8.828
		v8.828c0,4.875,3.953,8.828,8.828,8.828h17.655C154.944,198.621,158.897,194.668,158.897,189.793z"/>
	<path style="fill:#BEC8DC;" d="M203.034,189.793v-8.828c0,4.875-3.953,8.828-8.828,8.828h-17.655c-4.875,0-8.828-3.953-8.828-8.828
		v8.828c0,4.875,3.953,8.828,8.828,8.828h17.655C199.082,198.621,203.034,194.668,203.034,189.793z"/>
	<path style="fill:#BEC8DC;" d="M247.172,189.793v-8.828c0,4.875-3.953,8.828-8.828,8.828H220.69c-4.875,0-8.828-3.953-8.828-8.828
		v8.828c0,4.875,3.953,8.828,8.828,8.828h17.655C243.22,198.621,247.172,194.668,247.172,189.793z"/>
	<path style="fill:#BEC8DC;" d="M291.31,189.793v-8.828c0,4.875-3.953,8.828-8.828,8.828h-17.655c-4.875,0-8.828-3.953-8.828-8.828
		v8.828c0,4.875,3.953,8.828,8.828,8.828h17.655C287.358,198.621,291.31,194.668,291.31,189.793z"/>
	<path style="fill:#BEC8DC;" d="M335.448,189.793v-8.828c0,4.875-3.953,8.828-8.828,8.828h-17.655c-4.875,0-8.828-3.953-8.828-8.828
		v8.828c0,4.875,3.953,8.828,8.828,8.828h17.655C331.496,198.621,335.448,194.668,335.448,189.793z"/>
	<path style="fill:#BEC8DC;" d="M379.586,189.793v-8.828c0,4.875-3.953,8.828-8.828,8.828h-17.655c-4.875,0-8.828-3.953-8.828-8.828
		v8.828c0,4.875,3.953,8.828,8.828,8.828h17.655C375.634,198.621,379.586,194.668,379.586,189.793z"/>
	<path style="fill:#BEC8DC;" d="M423.724,189.793v-8.828c0,4.875-3.953,8.828-8.828,8.828h-17.655c-4.875,0-8.828-3.953-8.828-8.828
		v8.828c0,4.875,3.953,8.828,8.828,8.828h17.655C419.772,198.621,423.724,194.668,423.724,189.793z"/>
	<path style="fill:#BEC8DC;" d="M467.862,189.793h-26.483c-4.875,0-8.828-3.953-8.828-8.828v8.828c0,4.875,3.953,8.828,8.828,8.828
		h26.483c4.875,0,8.828-3.953,8.828-8.828v-8.828C476.69,185.841,472.737,189.793,467.862,189.793z"/>
	<path style="fill:#BEC8DC;" d="M141.241,225.103v-8.828c0,4.875-3.953,8.828-8.828,8.828h-17.655c-4.875,0-8.828-3.953-8.828-8.828
		v8.828c0,4.875,3.953,8.828,8.828,8.828h17.655C137.289,233.931,141.241,229.978,141.241,225.103z"/>
	<path style="fill:#BEC8DC;" d="M185.379,225.103v-8.828c0,4.875-3.953,8.828-8.828,8.828h-17.655c-4.875,0-8.828-3.953-8.828-8.828
		v8.828c0,4.875,3.953,8.828,8.828,8.828h17.655C181.427,233.931,185.379,229.978,185.379,225.103z"/>
	<path style="fill:#BEC8DC;" d="M229.517,225.103v-8.828c0,4.875-3.953,8.828-8.828,8.828h-17.655c-4.875,0-8.828-3.953-8.828-8.828
		v8.828c0,4.875,3.953,8.828,8.828,8.828h17.655C225.565,233.931,229.517,229.978,229.517,225.103z"/>
	<path style="fill:#BEC8DC;" d="M273.655,225.103v-8.828c0,4.875-3.953,8.828-8.828,8.828h-17.655c-4.875,0-8.828-3.953-8.828-8.828
		v8.828c0,4.875,3.953,8.828,8.828,8.828h17.655C269.703,233.931,273.655,229.978,273.655,225.103z"/>
	<path style="fill:#BEC8DC;" d="M317.793,225.103v-8.828c0,4.875-3.953,8.828-8.828,8.828H291.31c-4.875,0-8.828-3.953-8.828-8.828
		v8.828c0,4.875,3.953,8.828,8.828,8.828h17.655C313.841,233.931,317.793,229.978,317.793,225.103z"/>
	<path style="fill:#BEC8DC;" d="M361.931,225.103v-8.828c0,4.875-3.953,8.828-8.828,8.828h-17.655c-4.875,0-8.828-3.953-8.828-8.828
		v8.828c0,4.875,3.953,8.828,8.828,8.828h17.655C357.978,233.931,361.931,229.978,361.931,225.103z"/>
	<path style="fill:#BEC8DC;" d="M406.069,225.103v-8.828c0,4.875-3.953,8.828-8.828,8.828h-17.655c-4.875,0-8.828-3.953-8.828-8.828
		v8.828c0,4.875,3.953,8.828,8.828,8.828h17.655C402.116,233.931,406.069,229.978,406.069,225.103z"/>
	<path style="fill:#BEC8DC;" d="M467.862,225.103h-44.138c-4.875,0-8.828-3.953-8.828-8.828v8.828c0,4.875,3.953,8.828,8.828,8.828
		h17.655h26.483c4.875,0,8.828-3.953,8.828-8.828v-8.828C476.69,221.151,472.737,225.103,467.862,225.103z"/>
	<path style="fill:#BEC8DC;" d="M158.897,260.414v-8.828c0,4.875-3.953,8.828-8.828,8.828h-17.655c-4.875,0-8.828-3.953-8.828-8.828
		v8.828c0,4.875,3.953,8.828,8.828,8.828h17.655C154.944,269.241,158.897,265.289,158.897,260.414z"/>
	<path style="fill:#BEC8DC;" d="M150.069,331.034h-17.655c-4.875,0-8.828-3.953-8.828-8.828v8.828c0,4.875,3.953,8.828,8.828,8.828
		h17.655c4.875,0,8.828-3.953,8.828-8.828v-8.828C158.897,327.082,154.944,331.034,150.069,331.034z"/>
	<path style="fill:#BEC8DC;" d="M370.759,331.034h-17.655c-4.875,0-8.828-3.953-8.828-8.828v8.828c0,4.875,3.953,8.828,8.828,8.828
		h17.655c4.875,0,8.828-3.953,8.828-8.828v-8.828C379.586,327.082,375.634,331.034,370.759,331.034z"/>
	<path style="fill:#BEC8DC;" d="M203.034,260.414v-8.828c0,4.875-3.953,8.828-8.828,8.828h-17.655c-4.875,0-8.828-3.953-8.828-8.828
		v8.828c0,4.875,3.953,8.828,8.828,8.828h17.655C199.082,269.241,203.034,265.289,203.034,260.414z"/>
	<path style="fill:#BEC8DC;" d="M247.172,260.414v-8.828c0,4.875-3.953,8.828-8.828,8.828H220.69c-4.875,0-8.828-3.953-8.828-8.828
		v8.828c0,4.875,3.953,8.828,8.828,8.828h17.655C243.22,269.241,247.172,265.289,247.172,260.414z"/>
	<path style="fill:#BEC8DC;" d="M291.31,260.414v-8.828c0,4.875-3.953,8.828-8.828,8.828h-17.655c-4.875,0-8.828-3.953-8.828-8.828
		v8.828c0,4.875,3.953,8.828,8.828,8.828h17.655C287.358,269.241,291.31,265.289,291.31,260.414z"/>
	<path style="fill:#BEC8DC;" d="M335.448,260.414v-8.828c0,4.875-3.953,8.828-8.828,8.828h-17.655c-4.875,0-8.828-3.953-8.828-8.828
		v8.828c0,4.875,3.953,8.828,8.828,8.828h17.655C331.496,269.241,335.448,265.289,335.448,260.414z"/>
	<path style="fill:#BEC8DC;" d="M379.586,260.414v-8.828c0,4.875-3.953,8.828-8.828,8.828h-17.655c-4.875,0-8.828-3.953-8.828-8.828
		v8.828c0,4.875,3.953,8.828,8.828,8.828h17.655C375.634,269.241,379.586,265.289,379.586,260.414z"/>
	<path style="fill:#BEC8DC;" d="M423.724,260.414v-8.828c0,4.875-3.953,8.828-8.828,8.828h-17.655c-4.875,0-8.828-3.953-8.828-8.828
		v8.828c0,4.875,3.953,8.828,8.828,8.828h17.655C419.772,269.241,423.724,265.289,423.724,260.414z"/>
	<path style="fill:#BEC8DC;" d="M467.862,260.414h-26.483c-4.875,0-8.828-3.953-8.828-8.828v8.828c0,4.875,3.953,8.828,8.828,8.828
		h26.483c4.875,0,8.828-3.953,8.828-8.828v-8.828C476.69,256.461,472.737,260.414,467.862,260.414z"/>
	<path style="fill:#BEC8DC;" d="M141.241,295.724v-8.828c0,4.875-3.953,8.828-8.828,8.828h-17.655c-4.875,0-8.828-3.953-8.828-8.828
		v8.828c0,4.875,3.953,8.828,8.828,8.828h17.655C137.289,304.552,141.241,300.599,141.241,295.724z"/>
	<path style="fill:#BEC8DC;" d="M61.793,331.034H44.138c-4.875,0-8.828-3.953-8.828-8.828v8.828c0,4.875,3.953,8.828,8.828,8.828
		h17.655c4.875,0,8.828-3.953,8.828-8.828v-8.828C70.621,327.082,66.668,331.034,61.793,331.034z"/>
	<path style="fill:#BEC8DC;" d="M414.897,331.034h-17.655c-4.875,0-8.828-3.953-8.828-8.828v8.828c0,4.875,3.953,8.828,8.828,8.828
		h17.655c4.875,0,8.828-3.953,8.828-8.828v-8.828C423.724,327.082,419.772,331.034,414.897,331.034z"/>
	<path style="fill:#BEC8DC;" d="M467.862,331.034h-26.483c-4.875,0-8.828-3.953-8.828-8.828v8.828c0,4.875,3.953,8.828,8.828,8.828
		h26.483c4.875,0,8.828-3.953,8.828-8.828v-8.828C476.69,327.082,472.737,331.034,467.862,331.034z"/>
	<path style="fill:#BEC8DC;" d="M105.931,331.034H88.276c-4.875,0-8.828-3.953-8.828-8.828v8.828c0,4.875,3.953,8.828,8.828,8.828
		h17.655c4.875,0,8.828-3.953,8.828-8.828v-8.828C114.759,327.082,110.806,331.034,105.931,331.034z"/>
	<path style="fill:#BEC8DC;" d="M185.379,295.724v-8.828c0,4.875-3.953,8.828-8.828,8.828h-17.655c-4.875,0-8.828-3.953-8.828-8.828
		v8.828c0,4.875,3.953,8.828,8.828,8.828h17.655C181.427,304.552,185.379,300.599,185.379,295.724z"/>
	<path style="fill:#BEC8DC;" d="M229.517,295.724v-8.828c0,4.875-3.953,8.828-8.828,8.828h-17.655c-4.875,0-8.828-3.953-8.828-8.828
		v8.828c0,4.875,3.953,8.828,8.828,8.828h17.655C225.565,304.552,229.517,300.599,229.517,295.724z"/>
	<path style="fill:#BEC8DC;" d="M326.621,331.034H176.552c-4.875,0-8.828-3.953-8.828-8.828v8.828c0,4.875,3.953,8.828,8.828,8.828
		h150.069c4.875,0,8.828-3.953,8.828-8.828v-8.828C335.448,327.082,331.496,331.034,326.621,331.034z"/>
	<path style="fill:#BEC8DC;" d="M273.655,295.724v-8.828c0,4.875-3.953,8.828-8.828,8.828h-17.655c-4.875,0-8.828-3.953-8.828-8.828
		v8.828c0,4.875,3.953,8.828,8.828,8.828h17.655C269.703,304.552,273.655,300.599,273.655,295.724z"/>
	<path style="fill:#BEC8DC;" d="M317.793,295.724v-8.828c0,4.875-3.953,8.828-8.828,8.828H291.31c-4.875,0-8.828-3.953-8.828-8.828
		v8.828c0,4.875,3.953,8.828,8.828,8.828h17.655C313.841,304.552,317.793,300.599,317.793,295.724z"/>
	<path style="fill:#BEC8DC;" d="M361.931,295.724v-8.828c0,4.875-3.953,8.828-8.828,8.828h-17.655c-4.875,0-8.828-3.953-8.828-8.828
		v8.828c0,4.875,3.953,8.828,8.828,8.828h17.655C357.978,304.552,361.931,300.599,361.931,295.724z"/>
	<path style="fill:#BEC8DC;" d="M406.069,295.724v-8.828c0,4.875-3.953,8.828-8.828,8.828h-17.655c-4.875,0-8.828-3.953-8.828-8.828
		v8.828c0,4.875,3.953,8.828,8.828,8.828h17.655C402.116,304.552,406.069,300.599,406.069,295.724z"/>
	<path style="fill:#BEC8DC;" d="M467.862,295.724h-44.138c-4.875,0-8.828-3.953-8.828-8.828v8.828c0,4.875,3.953,8.828,8.828,8.828
		h17.655h26.483c4.875,0,8.828-3.953,8.828-8.828v-8.828C476.69,291.772,472.737,295.724,467.862,295.724z"/>
</g>
<g>
	<path style="fill:#FFFFFF;" d="M44.138,189.793h61.793c4.875,0,8.828-3.953,8.828-8.828v-8.828c0-4.875-3.953-8.828-8.828-8.828
		H44.138c-4.875,0-8.828,3.953-8.828,8.828v8.828C35.31,185.841,39.263,189.793,44.138,189.793z"/>
	<path style="fill:#FFFFFF;" d="M44.138,260.414h61.793c4.875,0,8.828-3.953,8.828-8.828v-8.828c0-4.875-3.953-8.828-8.828-8.828
		H88.276H44.138c-4.875,0-8.828,3.953-8.828,8.828v8.828C35.31,256.461,39.263,260.414,44.138,260.414z"/>
	<path style="fill:#FFFFFF;" d="M44.138,225.103h44.138c4.875,0,8.828-3.953,8.828-8.828v-8.828c0-4.875-3.953-8.828-8.828-8.828
		H44.138c-4.875,0-8.828,3.953-8.828,8.828v8.828C35.31,221.151,39.263,225.103,44.138,225.103z"/>
	<path style="fill:#FFFFFF;" d="M44.138,295.724h44.138c4.875,0,8.828-3.953,8.828-8.828v-8.828c0-4.875-3.953-8.828-8.828-8.828
		H44.138c-4.875,0-8.828,3.953-8.828,8.828v8.828C35.31,291.772,39.263,295.724,44.138,295.724z"/>
	<path style="fill:#FFFFFF;" d="M132.414,189.793h17.655c4.875,0,8.828-3.953,8.828-8.828v-8.828c0-4.875-3.953-8.828-8.828-8.828
		h-17.655c-4.875,0-8.828,3.953-8.828,8.828v8.828C123.586,185.841,127.539,189.793,132.414,189.793z"/>
	<path style="fill:#FFFFFF;" d="M176.552,189.793h17.655c4.875,0,8.828-3.953,8.828-8.828v-8.828c0-4.875-3.953-8.828-8.828-8.828
		h-17.655c-4.875,0-8.828,3.953-8.828,8.828v8.828C167.724,185.841,171.677,189.793,176.552,189.793z"/>
	<path style="fill:#FFFFFF;" d="M220.69,189.793h17.655c4.875,0,8.828-3.953,8.828-8.828v-8.828c0-4.875-3.953-8.828-8.828-8.828
		H220.69c-4.875,0-8.828,3.953-8.828,8.828v8.828C211.862,185.841,215.815,189.793,220.69,189.793z"/>
	<path style="fill:#FFFFFF;" d="M264.828,189.793h17.655c4.875,0,8.828-3.953,8.828-8.828v-8.828c0-4.875-3.953-8.828-8.828-8.828
		h-17.655c-4.875,0-8.828,3.953-8.828,8.828v8.828C256,185.841,259.953,189.793,264.828,189.793z"/>
	<path style="fill:#FFFFFF;" d="M308.966,189.793h17.655c4.875,0,8.828-3.953,8.828-8.828v-8.828c0-4.875-3.953-8.828-8.828-8.828
		h-17.655c-4.875,0-8.828,3.953-8.828,8.828v8.828C300.138,185.841,304.09,189.793,308.966,189.793z"/>
	<path style="fill:#FFFFFF;" d="M353.103,189.793h17.655c4.875,0,8.828-3.953,8.828-8.828v-8.828c0-4.875-3.953-8.828-8.828-8.828
		h-17.655c-4.875,0-8.828,3.953-8.828,8.828v8.828C344.276,185.841,348.228,189.793,353.103,189.793z"/>
	<path style="fill:#FFFFFF;" d="M397.241,189.793h17.655c4.875,0,8.828-3.953,8.828-8.828v-8.828c0-4.875-3.953-8.828-8.828-8.828
		h-17.655c-4.875,0-8.828,3.953-8.828,8.828v8.828C388.414,185.841,392.366,189.793,397.241,189.793z"/>
	<path style="fill:#FFFFFF;" d="M467.862,163.31h-26.483c-4.875,0-8.828,3.953-8.828,8.828v8.828c0,4.875,3.953,8.828,8.828,8.828
		h26.483c4.875,0,8.828-3.953,8.828-8.828v-8.828C476.69,167.263,472.737,163.31,467.862,163.31z"/>
	<path style="fill:#FFFFFF;" d="M114.759,225.103h17.655c4.875,0,8.828-3.953,8.828-8.828v-8.828c0-4.875-3.953-8.828-8.828-8.828
		h-17.655c-4.875,0-8.828,3.953-8.828,8.828v8.828C105.931,221.151,109.884,225.103,114.759,225.103z"/>
	<path style="fill:#FFFFFF;" d="M158.897,225.103h17.655c4.875,0,8.828-3.953,8.828-8.828v-8.828c0-4.875-3.953-8.828-8.828-8.828
		h-17.655c-4.875,0-8.828,3.953-8.828,8.828v8.828C150.069,221.151,154.022,225.103,158.897,225.103z"/>
	<path style="fill:#FFFFFF;" d="M203.034,225.103h17.655c4.875,0,8.828-3.953,8.828-8.828v-8.828c0-4.875-3.953-8.828-8.828-8.828
		h-17.655c-4.875,0-8.828,3.953-8.828,8.828v8.828C194.207,221.151,198.159,225.103,203.034,225.103z"/>
	<path style="fill:#FFFFFF;" d="M247.172,225.103h17.655c4.875,0,8.828-3.953,8.828-8.828v-8.828c0-4.875-3.953-8.828-8.828-8.828
		h-17.655c-4.875,0-8.828,3.953-8.828,8.828v8.828C238.345,221.151,242.297,225.103,247.172,225.103z"/>
	<path style="fill:#FFFFFF;" d="M291.31,225.103h17.655c4.875,0,8.828-3.953,8.828-8.828v-8.828c0-4.875-3.953-8.828-8.828-8.828
		H291.31c-4.875,0-8.828,3.953-8.828,8.828v8.828C282.483,221.151,286.435,225.103,291.31,225.103z"/>
	<path style="fill:#FFFFFF;" d="M335.448,225.103h17.655c4.875,0,8.828-3.953,8.828-8.828v-8.828c0-4.875-3.953-8.828-8.828-8.828
		h-17.655c-4.875,0-8.828,3.953-8.828,8.828v8.828C326.621,221.151,330.573,225.103,335.448,225.103z"/>
	<path style="fill:#FFFFFF;" d="M379.586,225.103h17.655c4.875,0,8.828-3.953,8.828-8.828v-8.828c0-4.875-3.953-8.828-8.828-8.828
		h-17.655c-4.875,0-8.828,3.953-8.828,8.828v8.828C370.759,221.151,374.711,225.103,379.586,225.103z"/>
	<path style="fill:#FFFFFF;" d="M423.724,198.621c-4.875,0-8.828,3.953-8.828,8.828v8.828c0,4.875,3.953,8.828,8.828,8.828h44.138
		c4.875,0,8.828-3.953,8.828-8.828v-8.828c0-4.875-3.953-8.828-8.828-8.828h-26.483H423.724z"/>
	<path style="fill:#FFFFFF;" d="M132.414,260.414h17.655c4.875,0,8.828-3.953,8.828-8.828v-8.828c0-4.875-3.953-8.828-8.828-8.828
		h-17.655c-4.875,0-8.828,3.953-8.828,8.828v8.828C123.586,256.461,127.539,260.414,132.414,260.414z"/>
	<path style="fill:#FFFFFF;" d="M150.069,304.552h-17.655c-4.875,0-8.828,3.953-8.828,8.828v8.828c0,4.875,3.953,8.828,8.828,8.828
		h17.655c4.875,0,8.828-3.953,8.828-8.828v-8.828C158.897,308.504,154.944,304.552,150.069,304.552z"/>
	<path style="fill:#FFFFFF;" d="M370.759,304.552h-17.655c-4.875,0-8.828,3.953-8.828,8.828v8.828c0,4.875,3.953,8.828,8.828,8.828
		h17.655c4.875,0,8.828-3.953,8.828-8.828v-8.828C379.586,308.504,375.634,304.552,370.759,304.552z"/>
	<path style="fill:#FFFFFF;" d="M176.552,260.414h17.655c4.875,0,8.828-3.953,8.828-8.828v-8.828c0-4.875-3.953-8.828-8.828-8.828
		h-17.655c-4.875,0-8.828,3.953-8.828,8.828v8.828C167.724,256.461,171.677,260.414,176.552,260.414z"/>
	<path style="fill:#FFFFFF;" d="M220.69,260.414h17.655c4.875,0,8.828-3.953,8.828-8.828v-8.828c0-4.875-3.953-8.828-8.828-8.828
		H220.69c-4.875,0-8.828,3.953-8.828,8.828v8.828C211.862,256.461,215.815,260.414,220.69,260.414z"/>
	<path style="fill:#FFFFFF;" d="M264.828,260.414h17.655c4.875,0,8.828-3.953,8.828-8.828v-8.828c0-4.875-3.953-8.828-8.828-8.828
		h-17.655c-4.875,0-8.828,3.953-8.828,8.828v8.828C256,256.461,259.953,260.414,264.828,260.414z"/>
	<path style="fill:#FFFFFF;" d="M308.966,260.414h17.655c4.875,0,8.828-3.953,8.828-8.828v-8.828c0-4.875-3.953-8.828-8.828-8.828
		h-17.655c-4.875,0-8.828,3.953-8.828,8.828v8.828C300.138,256.461,304.09,260.414,308.966,260.414z"/>
	<path style="fill:#FFFFFF;" d="M353.103,260.414h17.655c4.875,0,8.828-3.953,8.828-8.828v-8.828c0-4.875-3.953-8.828-8.828-8.828
		h-17.655c-4.875,0-8.828,3.953-8.828,8.828v8.828C344.276,256.461,348.228,260.414,353.103,260.414z"/>
	<path style="fill:#FFFFFF;" d="M397.241,260.414h17.655c4.875,0,8.828-3.953,8.828-8.828v-8.828c0-4.875-3.953-8.828-8.828-8.828
		h-17.655c-4.875,0-8.828,3.953-8.828,8.828v8.828C388.414,256.461,392.366,260.414,397.241,260.414z"/>
	<path style="fill:#FFFFFF;" d="M432.552,242.759v8.828c0,4.875,3.953,8.828,8.828,8.828h26.483c4.875,0,8.828-3.953,8.828-8.828
		v-8.828c0-4.875-3.953-8.828-8.828-8.828h-26.483C436.504,233.931,432.552,237.884,432.552,242.759z"/>
	<path style="fill:#FFFFFF;" d="M114.759,295.724h17.655c4.875,0,8.828-3.953,8.828-8.828v-8.828c0-4.875-3.953-8.828-8.828-8.828
		h-17.655c-4.875,0-8.828,3.953-8.828,8.828v8.828C105.931,291.772,109.884,295.724,114.759,295.724z"/>
	<path style="fill:#FFFFFF;" d="M35.31,313.379v8.828c0,4.875,3.953,8.828,8.828,8.828h17.655c4.875,0,8.828-3.953,8.828-8.828
		v-8.828c0-4.875-3.953-8.828-8.828-8.828H44.138C39.263,304.552,35.31,308.504,35.31,313.379z"/>
	<path style="fill:#FFFFFF;" d="M414.897,304.552h-17.655c-4.875,0-8.828,3.953-8.828,8.828v8.828c0,4.875,3.953,8.828,8.828,8.828
		h17.655c4.875,0,8.828-3.953,8.828-8.828v-8.828C423.724,308.504,419.772,304.552,414.897,304.552z"/>
	<path style="fill:#FFFFFF;" d="M432.552,313.379v8.828c0,4.875,3.953,8.828,8.828,8.828h26.483c4.875,0,8.828-3.953,8.828-8.828
		v-8.828c0-4.875-3.953-8.828-8.828-8.828h-26.483C436.504,304.552,432.552,308.504,432.552,313.379z"/>
	<path style="fill:#FFFFFF;" d="M105.931,304.552H88.276c-4.875,0-8.828,3.953-8.828,8.828v8.828c0,4.875,3.953,8.828,8.828,8.828
		h17.655c4.875,0,8.828-3.953,8.828-8.828v-8.828C114.759,308.504,110.806,304.552,105.931,304.552z"/>
	<path style="fill:#FFFFFF;" d="M158.897,295.724h17.655c4.875,0,8.828-3.953,8.828-8.828v-8.828c0-4.875-3.953-8.828-8.828-8.828
		h-17.655c-4.875,0-8.828,3.953-8.828,8.828v8.828C150.069,291.772,154.022,295.724,158.897,295.724z"/>
	<path style="fill:#FFFFFF;" d="M203.034,295.724h17.655c4.875,0,8.828-3.953,8.828-8.828v-8.828c0-4.875-3.953-8.828-8.828-8.828
		h-17.655c-4.875,0-8.828,3.953-8.828,8.828v8.828C194.207,291.772,198.159,295.724,203.034,295.724z"/>
	<path style="fill:#FFFFFF;" d="M326.621,304.552h-17.655H291.31h-26.483h-17.655H220.69h-17.655h-26.483
		c-4.875,0-8.828,3.953-8.828,8.828v8.828c0,4.875,3.953,8.828,8.828,8.828h150.069c4.875,0,8.828-3.953,8.828-8.828v-8.828
		C335.448,308.504,331.496,304.552,326.621,304.552z"/>
	<path style="fill:#FFFFFF;" d="M247.172,295.724h17.655c4.875,0,8.828-3.953,8.828-8.828v-8.828c0-4.875-3.953-8.828-8.828-8.828
		h-17.655c-4.875,0-8.828,3.953-8.828,8.828v8.828C238.345,291.772,242.297,295.724,247.172,295.724z"/>
	<path style="fill:#FFFFFF;" d="M291.31,295.724h17.655c4.875,0,8.828-3.953,8.828-8.828v-8.828c0-4.875-3.953-8.828-8.828-8.828
		H291.31c-4.875,0-8.828,3.953-8.828,8.828v8.828C282.483,291.772,286.435,295.724,291.31,295.724z"/>
	<path style="fill:#FFFFFF;" d="M335.448,295.724h17.655c4.875,0,8.828-3.953,8.828-8.828v-8.828c0-4.875-3.953-8.828-8.828-8.828
		h-17.655c-4.875,0-8.828,3.953-8.828,8.828v8.828C326.621,291.772,330.573,295.724,335.448,295.724z"/>
	<path style="fill:#FFFFFF;" d="M379.586,295.724h17.655c4.875,0,8.828-3.953,8.828-8.828v-8.828c0-4.875-3.953-8.828-8.828-8.828
		h-17.655c-4.875,0-8.828,3.953-8.828,8.828v8.828C370.759,291.772,374.711,295.724,379.586,295.724z"/>
	<path style="fill:#FFFFFF;" d="M423.724,269.241c-4.875,0-8.828,3.953-8.828,8.828v8.828c0,4.875,3.953,8.828,8.828,8.828h44.138
		c4.875,0,8.828-3.953,8.828-8.828v-8.828c0-4.875-3.953-8.828-8.828-8.828h-26.483H423.724z"/>
</g>
<g>
</g>
<g>
</g>
<g>
</g>
<g>
</g>
<g>
</g>
<g>
</g>
<g>
</g>
<g>
</g>
<g>
</g>
<g>
</g>
<g>
</g>
<g>
</g>
<g>
</g>
<g>
</g>
<g>
</g>
</svg>
