<?xml version="1.0" encoding="iso-8859-1"?>
<!-- Generator: Adobe Illustrator 19.0.0, SVG Export Plug-In . SVG Version: 6.00 Build 0)  -->
<svg version="1.1" id="Layer_1" xmlns="http://www.w3.org/2000/svg" xmlns:xlink="http://www.w3.org/1999/xlink" x="0px" y="0px"
	 viewBox="0 0 512 512" style="enable-background:new 0 0 512 512;" xml:space="preserve">
<rect x="235.586" y="361.692" style="fill:#F99D88;" width="40.817" height="142.05"/>
<path style="fill:#FFD24D;" d="M371.612,129.376c-18.996,0-231.226,0-231.226,0l95.203,254.332h231.226V224.58
	C466.816,172.001,424.192,129.376,371.612,129.376z"/>
<path style="fill:#FEE191;" d="M140.387,129.376c-52.58,0-95.203,42.625-95.203,95.203v159.129H235.59V224.58
	C235.59,172.001,192.966,129.376,140.387,129.376z"/>
<path style="fill:#F14742;" d="M359.204,8.258h-74.537l-8.258,63.862h82.795c5.473,0,9.91-4.436,9.91-9.91V18.168
	C369.114,12.694,364.677,8.258,359.204,8.258z"/>
<path d="M371.612,121.118h-62.171c-4.561,0-8.258,3.696-8.258,8.258c0,4.562,3.697,8.258,8.258,8.258h62.171
	c47.942,0,86.945,39.003,86.945,86.945v150.87h-214.71V224.58c0-36.42-18.919-68.503-47.443-86.945h46.971
	c4.561,0,8.258-3.696,8.258-8.258s-3.697-8.258-8.258-8.258H140.387c-57.049,0-103.461,46.413-103.461,103.461v159.128
	c0,4.562,3.697,8.258,8.258,8.258h182.15v111.776c0,4.562,3.697,8.258,8.258,8.258s8.258-3.696,8.258-8.258V391.966h24.302v111.776
	c0,4.562,3.697,8.258,8.258,8.258s8.258-3.696,8.258-8.258V391.966h182.15c4.561,0,8.258-3.696,8.258-8.258V224.58
	C475.074,167.531,428.661,121.118,371.612,121.118z M53.441,224.58c0-47.942,39.003-86.945,86.945-86.945
	s86.945,39.003,86.945,86.945v150.87H53.441V224.58z"/>
<path d="M276.409,312.403c4.561,0,8.258-3.696,8.258-8.258V80.378h74.537c10.018,0,18.168-8.15,18.168-18.168V18.168
	C377.372,8.15,369.222,0,359.204,0h-82.795c-4.561,0-8.258,3.696-8.258,8.258v295.886
	C268.151,308.705,271.848,312.403,276.409,312.403z M360.855,18.168v44.043c0,0.911-0.741,1.652-1.652,1.652h-74.537V16.516h74.537
	C360.115,16.516,360.855,17.257,360.855,18.168z"/>
<path d="M140.387,176.172c-4.561,0-8.258,3.696-8.258,8.258v25.325c0,4.562,3.697,8.258,8.258,8.258s8.258-3.696,8.258-8.258V184.43
	C148.645,179.868,144.947,176.172,140.387,176.172z"/>
<g>
</g>
<g>
</g>
<g>
</g>
<g>
</g>
<g>
</g>
<g>
</g>
<g>
</g>
<g>
</g>
<g>
</g>
<g>
</g>
<g>
</g>
<g>
</g>
<g>
</g>
<g>
</g>
<g>
</g>
</svg>
