<?xml version="1.0" encoding="iso-8859-1"?>
<!-- Generator: Adobe Illustrator 19.0.0, SVG Export Plug-In . SVG Version: 6.00 Build 0)  -->
<svg version="1.1" id="Capa_1" xmlns="http://www.w3.org/2000/svg" xmlns:xlink="http://www.w3.org/1999/xlink" x="0px" y="0px"
	 viewBox="0 0 58 58" style="enable-background:new 0 0 58 58;" xml:space="preserve">
<path style="fill:#38454F;" d="M56.462,45.612l-15.626-2.694c-7.833-1.35-15.839-1.35-23.671,0L1.538,45.612
	C0.735,45.75,0,45.132,0,44.316V9.438c0-0.816,0.735-1.434,1.538-1.296l15.626,2.694c7.833,1.35,15.839,1.35,23.671,0l15.626-2.694
	C57.265,8.004,58,8.623,58,9.438v34.878C58,45.132,57.265,45.75,56.462,45.612z"/>
<rect x="15" y="46.877" style="fill:#AFB6BB;" width="28" height="3"/>
<g>
	<path style="fill:#839CAA;" d="M5,19.877c0.256,0,0.512-0.098,0.707-0.293l4-4c0.391-0.391,0.391-1.023,0-1.414
		s-1.023-0.391-1.414,0l-4,4c-0.391,0.391-0.391,1.023,0,1.414C4.488,19.779,4.744,19.877,5,19.877z"/>
	<path style="fill:#839CAA;" d="M5,24.877c0.256,0,0.512-0.098,0.707-0.293l2-2c0.391-0.391,0.391-1.023,0-1.414
		s-1.023-0.391-1.414,0l-2,2c-0.391,0.391-0.391,1.023,0,1.414C4.488,24.779,4.744,24.877,5,24.877z"/>
	<path style="fill:#839CAA;" d="M8.29,19.167C8.11,19.357,8,19.617,8,19.877c0,0.26,0.11,0.52,0.29,0.71
		c0.19,0.18,0.45,0.29,0.71,0.29c0.26,0,0.52-0.11,0.71-0.29c0.18-0.19,0.29-0.45,0.29-0.71c0-0.26-0.11-0.52-0.29-0.71
		C9.33,18.797,8.66,18.797,8.29,19.167z"/>
	<path style="fill:#839CAA;" d="M10.293,18.584c0.195,0.195,0.451,0.293,0.707,0.293s0.512-0.098,0.707-0.293l3-3
		c0.391-0.391,0.391-1.023,0-1.414s-1.023-0.391-1.414,0l-3,3C9.902,17.561,9.902,18.194,10.293,18.584z"/>
	<path style="fill:#839CAA;" d="M13.293,19.17l-9,9c-0.391,0.391-0.391,1.023,0,1.414C4.488,29.779,4.744,29.877,5,29.877
		s0.512-0.098,0.707-0.293l9-9c0.391-0.391,0.391-1.023,0-1.414S13.684,18.779,13.293,19.17z"/>
	<path style="fill:#839CAA;" d="M15.29,17.167c-0.18,0.19-0.29,0.45-0.29,0.71c0,0.26,0.11,0.52,0.29,0.71
		c0.19,0.18,0.45,0.29,0.71,0.29c0.26,0,0.52-0.11,0.71-0.29c0.18-0.19,0.29-0.45,0.29-0.71c0-0.26-0.11-0.52-0.29-0.71
		C16.33,16.797,15.66,16.797,15.29,17.167z"/>
	<path style="fill:#839CAA;" d="M19.707,14.17c-0.391-0.391-1.023-0.391-1.414,0l-1,1c-0.391,0.391-0.391,1.023,0,1.414
		c0.195,0.195,0.451,0.293,0.707,0.293s0.512-0.098,0.707-0.293l1-1C20.098,15.194,20.098,14.561,19.707,14.17z"/>
</g>
<path style="fill:#AFB6BB;" d="M28,41.926v4.951c0,0.552,0.448,1,1,1s1-0.448,1-1v-4.951C29.333,41.917,28.667,41.917,28,41.926z"/>
<g>
</g>
<g>
</g>
<g>
</g>
<g>
</g>
<g>
</g>
<g>
</g>
<g>
</g>
<g>
</g>
<g>
</g>
<g>
</g>
<g>
</g>
<g>
</g>
<g>
</g>
<g>
</g>
<g>
</g>
</svg>
